<?xml version="1.0" standalone="no"?><!DOCTYPE svg PUBLIC "-//W3C//DTD SVG 1.1//EN" "http://www.w3.org/Graphics/SVG/1.1/DTD/svg11.dtd"><svg t="1649323181139" class="icon" viewBox="0 0 1024 1024" version="1.1" xmlns="http://www.w3.org/2000/svg" p-id="3750" xmlns:xlink="http://www.w3.org/1999/xlink" width="500" height="500"><defs><style type="text/css"></style></defs><path d="M512 512m-414 0a414 414 0 1 0 828 0 414 414 0 1 0-828 0Z" fill="#F0C48A" p-id="3751"></path><path d="M533.8 225.4c155.6 0 281.8 126.2 281.8 281.8s-126.2 281.8-281.8 281.8c-131.6 0-242.2-90.2-273.2-212.2l-105.8 8.4c36 176.2 192 308.8 378.8 308.8 213.6 0 386.8-173.2 386.8-386.8 0-213.6-173.2-386.8-386.8-386.8v105z" fill="#A4CFF2" p-id="3752"></path><path d="M882.2 484.4c0-133.6-67.8-251.4-170.8-320.8-53.2-27.6-113.6-43.2-177.6-43.2v84.8c45.8 6.2 88 23.4 124 48.8 93.4 45.8 157.8 142 157.8 253 0 155.6-126.2 281.8-281.8 281.8-60.4 0-116.4-19-162.2-51.4-65.6-32.2-116.8-89-141.6-158.4l-75.2 6c20.6 100.8 80.6 187.4 163.2 243 53.2 27.4 113.4 43 177.4 43 213.8 0 386.8-173 386.8-386.6z" fill="#D3E6F8" p-id="3753"></path><path d="M533.8 905.6c-92.4 0-182.4-32.4-253.4-91-70.2-57.8-118.8-138.6-137-227.2-0.6-3.2 0-6.8 2.2-9.4 2-2.6 5-4.4 8.4-4.6l105.8-8.4c5.8-0.4 10.8 3.2 12.2 8.8 30.4 119.8 138 203.4 261.8 203.4 148.8 0 270-121.2 270-270s-121.2-270-270-270c-6.4 0-11.8-5.2-11.8-11.8V120.4c0-6.4 5.2-11.8 11.8-11.8 219.8 0 398.4 178.8 398.4 398.4s-178.6 398.6-398.4 398.6z m-364.4-310c19 78.2 63.4 149.2 126 200.8C362.4 851.6 447 882 534 882c206.8 0 375-168.2 375-375 0-202.8-162-368.6-363.2-374.8v81.6c156.4 6.2 281.8 135.4 281.8 293.2 0 161.8-131.6 293.4-293.4 293.4-131.2 0-245.6-86.4-281.8-211.6l-83 6.8z" fill="#4C4372" p-id="3754"></path><path d="M343.828 442.478l-117.372-142.228 196.682-162.308 117.37 142.228z" fill="#A4CFF2" p-id="3755"></path><path d="M477 260.2l-170.2 137.4 37.2 44.8 196.6-162.2z" fill="#7BABF1" p-id="3756"></path><path d="M516.932 251.76l-70.398-85.308 177.708-146.648 70.396 85.304z" fill="#A4CFF2" p-id="3757"></path><path d="M659.8 76.6l-46.6 37.8 27.8 35L684.4 104z" fill="#7BABF1" p-id="3758"></path><path d="M344 454.2c-3.4 0-6.8-1.4-9-4.2l-117.4-142.2c-2-2.4-3-5.4-2.6-8.6 0.2-3 1.8-6 4.2-8l196.6-162.2c5-4.2 12.4-3.4 16.6 1.6l117.4 142.2c2 2.4 3 5.4 2.6 8.6-0.2 3-1.8 6-4.2 8l-196.6 162.2c-2.4 1.6-5 2.6-7.6 2.6z m-101-152.4l102.4 124.2 178.6-147.4-102.4-124.2-178.6 147.4z" fill="#4C4372" p-id="3759"></path><path d="M408.6 400.8c-3.4 0-6.8-1.6-9.2-4.4l-114.2-144.8c-4-5-3.2-12.4 2-16.4 5-4 12.4-3.2 16.4 2l114.2 144.8c4 5 3.2 12.4-2 16.4-2.2 1.6-4.6 2.4-7.2 2.4z" fill="#4C4372" p-id="3760"></path><path d="M709.4 21.4c9.4 11.4 7.8 28-3.6 37.4l-29.4 24.2L642.6 42 672 17.8c11.2-9.4 28-7.8 37.4 3.6z" fill="#7BABF1" p-id="3761"></path><path d="M676.4 94.8h-1.2c-3-0.2-6-1.8-8-4.2l-33.8-41c-2-2.4-3-5.4-2.6-8.6 0.2-3 1.8-6 4.2-8l29.4-24.2c16.2-13.4 40.4-11.2 54 5.2 13.4 16.2 11.2 40.4-5.2 54l-29.4 24c-2 1.8-4.6 2.8-7.4 2.8z m-17.2-51.2l19 23 20.2-16.8c6.4-5.2 7.2-14.6 2-21s-14.6-7.2-21-2l-20.2 16.8z" fill="#4C4372" p-id="3762"></path><path d="M517 263.6h-1.2c-3-0.2-6-1.8-8-4.2L437.6 174c-4.2-5-3.4-12.4 1.6-16.6l177.8-146.6c2.4-2 5.4-3 8.6-2.6 3 0.2 6 1.8 8 4.2L704 97.8c4.2 5 3.4 12.4-1.6 16.6l-177.8 146.6c-2.2 1.6-4.8 2.6-7.6 2.6z m-54-95.6l55.6 67.2 159.6-131.8-55.6-67.2L463 168z" fill="#4C4372" p-id="3763"></path><path d="M533.8 170.8m-97.4 0a97.4 97.4 0 1 0 194.8 0 97.4 97.4 0 1 0-194.8 0Z" fill="#E8677D" p-id="3764"></path><path d="M497.979097 206.639016a50.6 50.6 0 1 0 71.557957-71.560455 50.6 50.6 0 1 0-71.557957 71.560455Z" fill="#FD919E" p-id="3765"></path><path d="M925.4 1012.2H142.2c-21.4 0-38.8-17.4-38.8-38.8s17.4-38.8 38.8-38.8h783.2c21.4 0 38.8 17.4 38.8 38.8s-17.2 38.8-38.8 38.8z" fill="#7BABF1" p-id="3766"></path><path d="M533.8 280c-60.2 0-109-49-109-109S473.8 62 533.8 62c60.2 0 109 49 109 109S594 280 533.8 280z m0-194.8c-47.2 0-85.6 38.4-85.6 85.6s38.4 85.6 85.6 85.6 85.6-38.4 85.6-85.6-38.4-85.6-85.6-85.6z" fill="#4C4372" p-id="3767"></path><path d="M533.8 233.2c-34.4 0-62.2-28-62.2-62.2s28-62.2 62.2-62.2 62.2 28 62.2 62.2-27.8 62.2-62.2 62.2z m0-101.2c-21.4 0-38.8 17.4-38.8 38.8s17.4 38.8 38.8 38.8 38.8-17.4 38.8-38.8S555.2 132 533.8 132zM925.4 1024H142.2c-27.8 0-50.6-22.6-50.6-50.6 0-27.8 22.6-50.6 50.6-50.6h783.2c27.8 0 50.6 22.6 50.6 50.6S953.4 1024 925.4 1024zM142.2 946.4c-15 0-27.2 12.2-27.2 27.2s12.2 27.2 27.2 27.2h783.2c15 0 27.2-12.2 27.2-27.2s-12.2-27.2-27.2-27.2H142.2z" fill="#4C4372" p-id="3768"></path><path d="M59.8 530h280v80.4h-280z" fill="#A4CFF2" p-id="3769"></path><path d="M231.8 530h108v80.4h-108z" fill="#7BABF1" p-id="3770"></path><path d="M339.8 622.2h-280c-6.4 0-11.8-5.2-11.8-11.8V530c0-6.4 5.2-11.8 11.8-11.8h280c6.4 0 11.8 5.2 11.8 11.8v80.4c0 6.6-5.4 11.8-11.8 11.8zM71.4 598.8H328v-57H71.4v57z" fill="#4C4372" p-id="3771"></path><path d="M518.348145 933.521097a97.4 97.4 0 1 0 31.20862-192.283806 97.4 97.4 0 1 0-31.20862 192.283806Z" fill="#E8677D" p-id="3772"></path><path d="M498.089893 873.186494a50.6 50.6 0 1 0 71.557957-71.560455 50.6 50.6 0 1 0-71.557957 71.560455Z" fill="#FD919E" p-id="3773"></path><path d="M533.8 946.4c-60.2 0-109-49-109-109 0-60.2 49-109 109-109 60.2 0 109 49 109 109s-48.8 109-109 109z m0-194.6c-47.2 0-85.6 38.4-85.6 85.6 0 47.2 38.4 85.6 85.6 85.6s85.6-38.4 85.6-85.6c0-47.2-38.4-85.6-85.6-85.6z" fill="#4C4372" p-id="3774"></path><path d="M533.8 899.6c-34.4 0-62.2-28-62.2-62.2 0-34.4 28-62.2 62.2-62.2s62.2 28 62.2 62.2c0.2 34.2-27.8 62.2-62.2 62.2z m0-101.2c-21.4 0-38.8 17.4-38.8 38.8s17.4 38.8 38.8 38.8 38.8-17.4 38.8-38.8-17.4-38.8-38.8-38.8z" fill="#4C4372" p-id="3775"></path></svg>